<svg xmlns="http://www.w3.org/2000/svg" width="488" height="186" fill="none"><path fill="url(#a)" d="M91.318 88.196H13v9.149h78.318l85.661 29.57 134.121 3.614 70.976 8.784h139.995V43.484H382.076L311.1 54.085l-134.121 6-85.66 28.11Z"/><path stroke="url(#b)" stroke-opacity=".2" stroke-width="10" d="M527.071 38.484v105.829H381.769l-.307-.038-70.748-8.755-133.869-3.607-.77-.02-.727-.251-84.87-29.297H8v-19.15h82.522l84.898-27.861.651-.213.685-.031 133.86-5.99 70.722-10.56.367-.056z"/><path stroke="#0D0D0D" stroke-width="2" d="M382.463 33.535V149.65m-70-116.115V149.65m-136-116.115V149.65"/><g filter="url(#c)"><rect width="60" height="60" y="62.223" fill="url(#d)" rx="30"/></g><rect width="59.12" height="59.12" x=".44" y="62.663" stroke="#383838" stroke-width=".88" rx="29.56"/>
<image href="/assets/Ample.ai.svg" x="15" y="77.223" width="30" height="30" />
</svg>